<svg width="512" height="512" viewBox="0 0 512 512" fill="none" xmlns="http://www.w3.org/2000/svg">
<path d="M486 54.4H26C25.0806 54.3995 24.1701 54.5802 23.3206 54.9318C22.4711 55.2834 21.6992 55.799 21.0491 56.4491C20.399 57.0992 19.8834 57.8711 19.5318 58.7206C19.1802 59.5701 18.9995 60.4806 19 61.4V450.632C19.0074 452.483 19.7483 454.256 21.0604 455.562C22.3724 456.868 24.1487 457.601 26 457.6H486C486.919 457.601 487.83 457.42 488.679 457.068C489.529 456.717 490.301 456.201 490.951 455.551C491.601 454.901 492.117 454.129 492.468 453.279C492.82 452.43 493.001 451.519 493 450.6V61.384C492.997 59.5299 492.258 57.7529 490.945 56.4434C489.633 55.1339 487.854 54.3989 486 54.4V54.4ZM33 68.4H479V110.948H33V68.4ZM33 443.632V124.948H479V443.6L33 443.632Z" fill="url(#paint0_linear)"/>
<path d="M331.832 77.572C329.44 77.572 327.101 78.2814 325.112 79.6106C323.123 80.9397 321.572 82.8288 320.657 85.0391C319.741 87.2493 319.502 89.6814 319.968 92.0278C320.435 94.3742 321.587 96.5295 323.279 98.2212C324.97 99.9128 327.126 101.065 329.472 101.532C331.819 101.998 334.251 101.759 336.461 100.843C338.671 99.9278 340.56 98.3774 341.889 96.3882C343.219 94.399 343.928 92.0604 343.928 89.668C343.928 86.46 342.654 83.3833 340.385 81.1149C338.117 78.8464 335.04 77.572 331.832 77.572V77.572Z" fill="url(#paint1_linear)"/>
<path d="M379.168 77.572C376.775 77.5712 374.436 78.28 372.447 79.6086C370.457 80.9373 368.906 82.8261 367.99 85.0363C367.074 87.2465 366.834 89.6787 367.3 92.0254C367.766 94.372 368.918 96.5277 370.609 98.2198C372.301 99.9118 374.456 101.064 376.803 101.531C379.149 101.998 381.582 101.759 383.792 100.844C386.003 99.9283 387.892 98.3779 389.221 96.3886C390.55 94.3994 391.26 92.0606 391.26 89.668C391.26 86.4607 389.986 83.3846 387.719 81.1163C385.451 78.8479 382.375 77.5731 379.168 77.572V77.572Z" fill="url(#paint2_linear)"/>
<path d="M426.5 77.572C424.108 77.5712 421.768 78.28 419.779 79.6086C417.789 80.9373 416.238 82.8261 415.322 85.0363C414.406 87.2465 414.166 89.6787 414.632 92.0254C415.098 94.372 416.25 96.5277 417.941 98.2198C419.633 99.9118 421.788 101.064 424.135 101.531C426.481 101.998 428.914 101.759 431.124 100.844C433.335 99.9283 435.224 98.3779 436.553 96.3886C437.883 94.3994 438.592 92.0606 438.592 89.668C438.593 88.0797 438.28 86.5069 437.673 85.0394C437.065 83.5719 436.175 82.2384 435.052 81.1151C433.929 79.9918 432.596 79.1008 431.128 78.4929C429.661 77.8849 428.088 77.572 426.5 77.572Z" fill="url(#paint3_linear)"/>
<path d="M428.504 216.084C423.614 211.093 417.11 208.001 410.152 207.36C406.704 207.018 403.223 207.45 399.964 208.627C396.705 209.804 393.75 211.694 391.316 214.16L313.6 300.648C300.132 298.548 285.32 308.46 278.244 317.32C275.199 321.667 272.796 326.431 271.112 331.464C268.668 337.656 265.912 344.664 262.016 346.776C260.854 347.407 259.894 348.354 259.248 349.507C258.601 350.661 258.295 351.974 258.364 353.294C258.433 354.615 258.875 355.889 259.638 356.969C260.401 358.048 261.454 358.89 262.676 359.396C273.547 364.206 285.263 366.819 297.148 367.084C308.591 367.401 319.8 363.802 328.92 356.884C332.937 353.904 336.284 350.113 338.744 345.758C341.204 341.403 342.722 336.579 343.2 331.6L430.4 253.252C430.492 253.172 430.584 253.084 430.672 252.996C433.06 250.57 434.884 247.647 436.012 244.435C437.14 241.224 437.546 237.803 437.2 234.416C436.563 227.468 433.482 220.972 428.504 216.084V216.084ZM320.268 345.888C314.184 350.688 301.044 356.936 277.892 349.992C280.381 345.731 282.475 341.251 284.148 336.608C285.391 332.896 287.088 329.352 289.2 326.056C293.96 320.084 305.164 312.932 312.184 314.6L318.556 320.972L329.2 331.6C328.215 337.351 325.006 342.483 320.268 345.888V345.888ZM420.912 243L336.352 318.96L330.988 313.6L325.62 308.236L401.472 223.788C405.524 219.748 413.368 220.752 418.604 225.984C423.84 231.216 424.828 238.92 420.912 243V243Z" fill="url(#paint4_linear)"/>
<path d="M210.608 277.28H81.696C79.8395 277.28 78.0591 278.018 76.7463 279.33C75.4335 280.643 74.696 282.424 74.696 284.28C74.696 286.137 75.4335 287.917 76.7463 289.23C78.0591 290.543 79.8395 291.28 81.696 291.28H210.608C212.465 291.28 214.245 290.543 215.558 289.23C216.871 287.917 217.608 286.137 217.608 284.28C217.608 282.424 216.871 280.643 215.558 279.33C214.245 278.018 212.465 277.28 210.608 277.28V277.28Z" fill="url(#paint5_linear)"/>
<path d="M81.688 329.176H210.592C212.448 329.176 214.229 328.439 215.542 327.126C216.854 325.813 217.592 324.033 217.592 322.176C217.592 320.32 216.854 318.539 215.542 317.226C214.229 315.914 212.448 315.176 210.592 315.176H81.688C79.8315 315.176 78.051 315.914 76.7382 317.226C75.4255 318.539 74.688 320.32 74.688 322.176C74.688 324.033 75.4255 325.813 76.7382 327.126C78.051 328.439 79.8315 329.176 81.688 329.176V329.176Z" fill="url(#paint6_linear)"/>
<path d="M210.608 353.08H81.688C79.8315 353.08 78.051 353.817 76.7382 355.13C75.4255 356.443 74.688 358.223 74.688 360.08C74.688 361.936 75.4255 363.717 76.7382 365.03C78.051 366.342 79.8315 367.08 81.688 367.08H210.608C212.465 367.08 214.245 366.342 215.558 365.03C216.87 363.717 217.608 361.936 217.608 360.08C217.608 358.223 216.87 356.443 215.558 355.13C214.245 353.817 212.465 353.08 210.608 353.08V353.08Z" fill="url(#paint7_linear)"/>
<path d="M210.608 201.488H81.696C79.8395 201.488 78.0591 202.226 76.7463 203.538C75.4335 204.851 74.696 206.632 74.696 208.488C74.696 210.345 75.4335 212.125 76.7463 213.438C78.0591 214.751 79.8395 215.488 81.696 215.488H210.608C212.465 215.488 214.245 214.751 215.558 213.438C216.871 212.125 217.608 210.345 217.608 208.488C217.608 206.632 216.871 204.851 215.558 203.538C214.245 202.226 212.465 201.488 210.608 201.488V201.488Z" fill="url(#paint8_linear)"/>
<path d="M81.688 253.384H210.592C212.448 253.384 214.229 252.647 215.542 251.334C216.854 250.021 217.592 248.241 217.592 246.384C217.592 244.528 216.854 242.747 215.542 241.434C214.229 240.122 212.448 239.384 210.592 239.384H81.688C79.8315 239.384 78.051 240.122 76.7382 241.434C75.4255 242.747 74.688 244.528 74.688 246.384C74.688 248.241 75.4255 250.021 76.7382 251.334C78.051 252.647 79.8315 253.384 81.688 253.384V253.384Z" fill="url(#paint9_linear)"/>
<defs>
<linearGradient id="paint0_linear" x1="256" y1="54.4" x2="256" y2="457.6" gradientUnits="userSpaceOnUse">
<stop stop-color="#EB174A"/>
<stop offset="1" stop-color="#F97125"/>
</linearGradient>
<linearGradient id="paint1_linear" x1="331.832" y1="77.572" x2="331.832" y2="101.764" gradientUnits="userSpaceOnUse">
<stop stop-color="#EB174A"/>
<stop offset="1" stop-color="#F97125"/>
</linearGradient>
<linearGradient id="paint2_linear" x1="379.164" y1="77.572" x2="379.164" y2="101.764" gradientUnits="userSpaceOnUse">
<stop stop-color="#EB174A"/>
<stop offset="1" stop-color="#F97125"/>
</linearGradient>
<linearGradient id="paint3_linear" x1="426.496" y1="77.572" x2="426.496" y2="101.764" gradientUnits="userSpaceOnUse">
<stop stop-color="#EB174A"/>
<stop offset="1" stop-color="#F97125"/>
</linearGradient>
<linearGradient id="paint4_linear" x1="347.837" y1="207.246" x2="347.837" y2="367.103" gradientUnits="userSpaceOnUse">
<stop stop-color="#EB174A"/>
<stop offset="1" stop-color="#F97125"/>
</linearGradient>
<linearGradient id="paint5_linear" x1="146.152" y1="277.28" x2="146.152" y2="291.28" gradientUnits="userSpaceOnUse">
<stop stop-color="#EB174A"/>
<stop offset="1" stop-color="#F97125"/>
</linearGradient>
<linearGradient id="paint6_linear" x1="146.14" y1="315.176" x2="146.14" y2="329.176" gradientUnits="userSpaceOnUse">
<stop stop-color="#EB174A"/>
<stop offset="1" stop-color="#F97125"/>
</linearGradient>
<linearGradient id="paint7_linear" x1="146.148" y1="353.08" x2="146.148" y2="367.08" gradientUnits="userSpaceOnUse">
<stop stop-color="#EB174A"/>
<stop offset="1" stop-color="#F97125"/>
</linearGradient>
<linearGradient id="paint8_linear" x1="146.152" y1="201.488" x2="146.152" y2="215.488" gradientUnits="userSpaceOnUse">
<stop stop-color="#EB174A"/>
<stop offset="1" stop-color="#F97125"/>
</linearGradient>
<linearGradient id="paint9_linear" x1="146.14" y1="239.384" x2="146.14" y2="253.384" gradientUnits="userSpaceOnUse">
<stop stop-color="#EB174A"/>
<stop offset="1" stop-color="#F97125"/>
</linearGradient>
</defs>
</svg>
