<svg width="512" height="512" viewBox="0 0 512 512" fill="none" xmlns="http://www.w3.org/2000/svg">
<g clip-path="url(#clip0)">
<path d="M504.05 170.21C516.14 185.22 514.38 208.66 499.21 221.19C485.29 232.68 465.94 230.14 454.91 216.43C404.47 153.75 332.26 117.8 256.79 117.8H255.65C179.73 118.16 107.44 154.79 57.3 218.3C46.31 232.23 26.94 234.73 13.08 223.5C-2.35998 210.99 -4.11998 187.55 7.74002 172.54C68.42 95.71 157.02 47.84 255.32 47.37H256.75C304.34 47.37 350.31 58.35 393.39 79.99C397.09 81.85 398.58 86.36 396.72 90.06C394.861 93.76 390.361 95.25 386.66 93.39C345.69 72.81 301.98 62.37 256.75 62.37H255.38C165.11 62.8 79.13 106.34 19.51 181.84C12.37 190.87 13.97 204.91 22.5 211.82C29.9 217.82 39.72 216.36 45.53 209.01C98.51 141.89 175.07 103.18 255.57 102.8H256.79C336.82 102.8 413.29 140.79 466.6 207.03C472.491 214.35 482.34 215.67 489.63 209.65C498.18 202.59 499.55 188.54 492.37 179.62C470.33 152.24 444.72 128.96 416.25 110.41C412.78 108.15 411.8 103.5 414.06 100.03C416.321 96.56 420.97 95.58 424.441 97.84C454.24 117.25 481.02 141.6 504.05 170.21V170.21Z" fill="url(#paint0_linear)"/>
<path d="M421.96 235.67C435.31 250.87 433.46 275.231 418.14 287.88C404.88 298.83 386.13 297.11 374.491 283.89C343.111 248.26 301.261 228.661 256.571 228.661C256.331 228.661 256.091 228.661 255.851 228.661C210.891 228.871 168.941 248.881 137.731 285.001C126.221 298.321 107.481 300.231 94.141 289.421L94.121 289.401C78.671 276.88 76.621 252.541 89.811 237.231C131.891 188.381 190.791 158.541 255.521 158.231C320.67 157.94 379.71 187.53 421.96 235.67V235.67ZM408.57 276.33C417.42 269.019 418.45 254.4 410.69 245.56C369.73 198.89 315.009 173.23 256.53 173.23C256.22 173.23 255.91 173.23 255.6 173.23C196.76 173.51 141.92 199.71 101.18 247.01C97.46 251.33 95.64 257.26 96.18 263.281C96.7 269.091 99.39 274.361 103.56 277.741C103.56 277.741 103.56 277.751 103.57 277.751L103.58 277.761C110.6 283.442 120.19 282.371 126.38 275.192C160.47 235.742 206.42 213.892 255.78 213.662H256.571C305.631 213.662 351.481 235.062 385.751 273.982C392.01 281.09 401.61 282.08 408.57 276.33V276.33Z" fill="url(#paint1_linear)"/>
<path d="M337.11 300.21C344.65 306.83 348.98 316.69 348.98 327.25C348.98 338.36 344.309 348.59 336.169 355.31C323.869 365.47 307.23 364.491 295.769 354.581C289.019 348.741 281.45 344.511 273.259 342.031C269.289 340.821 267.049 336.631 268.259 332.671C269.459 328.711 273.65 326.471 277.61 327.671C287.82 330.771 297.24 336.011 305.58 343.232C311.76 348.572 320.21 349.042 326.62 343.752C336.25 335.792 336.44 319.582 327.21 311.482C306.79 293.561 282.26 284.091 256.29 284.091H255.81C229.64 284.211 205.04 293.921 184.64 312.152C175.34 320.462 176.02 336.702 185.54 344.412C191.95 349.601 200.4 349.141 206.56 343.702C216.02 335.362 227.27 329.431 239.1 326.572C243.12 325.592 247.18 328.072 248.15 332.092C249.13 336.122 246.65 340.172 242.63 341.153C233.17 343.443 224.12 348.213 216.48 354.953C205 365.083 188.37 366.013 176.1 356.062C159.13 342.323 158.7 315.233 174.64 300.972C197.48 280.552 226.28 269.233 255.73 269.092H256.29C285.53 269.09 314.24 280.139 337.11 300.21V300.21Z" fill="url(#paint2_linear)"/>
<path d="M256 386.849C277.38 386.849 294.76 404.299 294.76 425.74C294.76 447.19 277.38 464.63 256 464.63C234.63 464.63 217.24 447.191 217.24 425.74C217.24 404.3 234.63 386.849 256 386.849ZM279.76 425.74C279.76 412.57 269.1 401.849 256 401.849C242.9 401.849 232.24 412.57 232.24 425.74C232.24 438.92 242.9 449.63 256 449.63C269.1 449.63 279.76 438.92 279.76 425.74Z" fill="url(#paint3_linear)"/>
</g>
<defs>
<linearGradient id="paint0_linear" x1="256.001" y1="47.37" x2="256.001" y2="230.555" gradientUnits="userSpaceOnUse">
<stop stop-color="#EB174A"/>
<stop offset="1" stop-color="#F97125"/>
</linearGradient>
<linearGradient id="paint1_linear" x1="256" y1="158.229" x2="256" y2="296.415" gradientUnits="userSpaceOnUse">
<stop stop-color="#EB174A"/>
<stop offset="1" stop-color="#F97125"/>
</linearGradient>
<linearGradient id="paint2_linear" x1="255.999" y1="269.092" x2="255.999" y2="363.057" gradientUnits="userSpaceOnUse">
<stop stop-color="#EB174A"/>
<stop offset="1" stop-color="#F97125"/>
</linearGradient>
<linearGradient id="paint3_linear" x1="256" y1="386.849" x2="256" y2="464.63" gradientUnits="userSpaceOnUse">
<stop stop-color="#EB174A"/>
<stop offset="1" stop-color="#F97125"/>
</linearGradient>
<clipPath id="clip0">
<rect width="512" height="512" fill="white"/>
</clipPath>
</defs>
</svg>
