<svg width="512" height="512" viewBox="0 0 512 512" fill="none" xmlns="http://www.w3.org/2000/svg">
<path d="M477.468 161.259H34.5323C29.0273 161.259 23.7477 159.072 19.8551 155.18C15.9624 151.287 13.7756 146.008 13.7756 140.503V48.5501C13.7756 43.0451 15.9624 37.7655 19.8551 33.8728C23.7477 29.9802 29.0273 27.7933 34.5323 27.7933H477.468C482.973 27.7933 488.252 29.9802 492.145 33.8728C496.038 37.7655 498.224 43.0451 498.224 48.5501V140.503C498.224 146.008 496.038 151.287 492.145 155.18C488.252 159.072 482.973 161.259 477.468 161.259V161.259ZM34.5323 41.6312C32.6973 41.6312 30.9374 42.3601 29.6399 43.6577C28.3424 44.9552 27.6134 46.7151 27.6134 48.5501V140.503C27.6134 142.338 28.3424 144.097 29.6399 145.395C30.9374 146.692 32.6973 147.421 34.5323 147.421H477.468C479.303 147.421 481.063 146.692 482.36 145.395C483.658 144.097 484.387 142.338 484.387 140.503V48.5501C484.387 46.7151 483.658 44.9552 482.36 43.6577C481.063 42.3601 479.303 41.6312 477.468 41.6312H34.5323Z" fill="url(#paint0_linear)"/>
<path d="M415.073 124.589C409.127 124.588 403.316 122.823 398.373 119.519C393.43 116.215 389.578 111.519 387.303 106.026C385.029 100.533 384.435 94.4882 385.596 88.657C386.756 82.8259 389.62 77.4699 393.825 73.2662C398.029 69.0626 403.386 66.2001 409.217 65.0407C415.049 63.8812 421.093 64.477 426.586 66.7526C432.079 69.0281 436.773 72.8814 440.077 77.825C443.38 82.7686 445.143 88.5807 445.143 94.5262C445.133 102.498 441.962 110.14 436.325 115.776C430.687 121.412 423.044 124.582 415.073 124.589ZM415.073 78.3014C411.864 78.3027 408.728 79.2555 406.061 81.0391C403.393 82.8227 401.315 85.3572 400.088 88.322C398.861 91.2868 398.541 94.5489 399.168 97.6958C399.794 100.843 401.34 103.733 403.61 106.001C405.879 108.27 408.77 109.814 411.917 110.44C415.064 111.065 418.326 110.744 421.29 109.515C424.255 108.287 426.788 106.208 428.571 103.54C430.353 100.872 431.305 97.7349 431.305 94.5262C431.299 90.2236 429.587 86.0989 426.544 83.0571C423.501 80.0154 419.376 78.305 415.073 78.3014V78.3014Z" fill="url(#paint1_linear)"/>
<path d="M322.74 124.589C316.794 124.589 310.982 122.826 306.038 119.522C301.094 116.219 297.241 111.524 294.966 106.031C292.69 100.537 292.095 94.4929 293.255 88.6613C294.415 82.8297 297.278 77.473 301.482 73.2687C305.687 69.0643 311.043 66.2011 316.875 65.0412C322.707 63.8812 328.751 64.4765 334.244 66.7519C339.738 69.0273 344.433 72.8805 347.736 77.8243C351.039 82.7681 352.803 88.5804 352.803 94.5262C352.793 102.497 349.623 110.138 343.987 115.774C338.351 121.41 330.71 124.58 322.74 124.589ZM322.74 78.3014C319.531 78.3014 316.394 79.2529 313.726 81.0357C311.058 82.8185 308.978 85.3525 307.75 88.3172C306.522 91.2819 306.201 94.5442 306.827 97.6915C307.453 100.839 308.998 103.73 311.267 105.999C313.536 108.268 316.427 109.813 319.575 110.439C322.722 111.065 325.984 110.744 328.949 109.516C331.914 108.288 334.448 106.208 336.23 103.54C338.013 100.872 338.965 97.7352 338.965 94.5262C338.959 90.2248 337.248 86.1011 334.207 83.0596C331.165 80.018 327.041 78.3068 322.74 78.3014V78.3014Z" fill="url(#paint2_linear)"/>
<path d="M257.937 101.445H73.7764C71.9414 101.445 70.1816 100.716 68.884 99.4186C67.5865 98.1211 66.8575 96.3612 66.8575 94.5262C66.8575 92.6912 67.5865 90.9314 68.884 89.6338C70.1816 88.3363 71.9414 87.6073 73.7764 87.6073H257.937C259.772 87.6073 261.532 88.3363 262.83 89.6338C264.127 90.9314 264.856 92.6912 264.856 94.5262C264.856 96.3612 264.127 98.1211 262.83 99.4186C261.532 100.716 259.772 101.445 257.937 101.445Z" fill="url(#paint3_linear)"/>
<path d="M477.468 322.733H34.5323C29.0273 322.733 23.7477 320.546 19.8551 316.654C15.9624 312.761 13.7756 307.481 13.7756 301.976V210.024C13.7756 204.519 15.9624 199.239 19.8551 195.347C23.7477 191.454 29.0273 189.267 34.5323 189.267H477.468C482.973 189.267 488.252 191.454 492.145 195.347C496.038 199.239 498.224 204.519 498.224 210.024V301.976C498.224 307.481 496.038 312.761 492.145 316.654C488.252 320.546 482.973 322.733 477.468 322.733ZM34.5323 203.105C32.6973 203.105 30.9374 203.834 29.6399 205.131C28.3424 206.429 27.6134 208.189 27.6134 210.024V301.976C27.6134 303.811 28.3424 305.571 29.6399 306.869C30.9374 308.166 32.6973 308.895 34.5323 308.895H477.468C479.303 308.895 481.063 308.166 482.36 306.869C483.658 305.571 484.387 303.811 484.387 301.976V210.024C484.387 208.189 483.658 206.429 482.36 205.131C481.063 203.834 479.303 203.105 477.468 203.105H34.5323Z" fill="url(#paint4_linear)"/>
<path d="M415.073 286.063C409.127 286.061 403.316 284.297 398.373 280.993C393.43 277.689 389.578 272.993 387.303 267.5C385.029 262.006 384.435 255.962 385.596 250.131C386.756 244.3 389.62 238.944 393.825 234.74C398.029 230.536 403.386 227.674 409.217 226.514C415.049 225.355 421.093 225.951 426.586 228.226C432.079 230.502 436.773 234.355 440.077 239.299C443.38 244.242 445.143 250.054 445.143 256C445.133 263.971 441.962 271.614 436.325 277.25C430.687 282.886 423.044 286.055 415.073 286.063V286.063ZM415.073 239.775C411.864 239.776 408.728 240.729 406.061 242.513C403.393 244.296 401.315 246.831 400.088 249.796C398.861 252.761 398.541 256.023 399.168 259.17C399.794 262.316 401.34 265.207 403.61 267.475C405.879 269.744 408.77 271.288 411.917 271.914C415.064 272.539 418.326 272.217 421.29 270.989C424.255 269.761 426.788 267.681 428.571 265.013C430.353 262.345 431.305 259.209 431.305 256C431.299 251.697 429.587 247.573 426.544 244.531C423.501 241.489 419.376 239.779 415.073 239.775Z" fill="url(#paint5_linear)"/>
<path d="M322.74 286.063C316.794 286.063 310.982 284.3 306.038 280.996C301.094 277.693 297.241 272.998 294.966 267.504C292.69 262.011 292.095 255.967 293.255 250.135C294.415 244.303 297.278 238.947 301.482 234.742C305.687 230.538 311.043 227.675 316.875 226.515C322.707 225.355 328.751 225.95 334.244 228.226C339.738 230.501 344.433 234.354 347.736 239.298C351.039 244.242 352.803 250.054 352.803 256C352.793 263.97 349.623 271.612 343.987 277.247C338.351 282.883 330.71 286.054 322.74 286.063V286.063ZM322.74 239.775C319.531 239.775 316.394 240.727 313.726 242.51C311.058 244.292 308.978 246.826 307.75 249.791C306.522 252.756 306.201 256.018 306.827 259.165C307.453 262.313 308.998 265.204 311.267 267.473C313.536 269.742 316.427 271.287 319.575 271.913C322.722 272.539 325.984 272.218 328.949 270.99C331.914 269.762 334.448 267.682 336.23 265.014C338.013 262.346 338.965 259.209 338.965 256C338.959 251.699 337.248 247.575 334.207 244.533C331.165 241.492 327.041 239.781 322.74 239.775V239.775Z" fill="url(#paint6_linear)"/>
<path d="M257.937 262.919H73.7764C71.9414 262.919 70.1816 262.19 68.884 260.892C67.5865 259.595 66.8575 257.835 66.8575 256C66.8575 254.165 67.5865 252.405 68.884 251.108C70.1816 249.81 71.9414 249.081 73.7764 249.081H257.937C259.772 249.081 261.532 249.81 262.83 251.108C264.127 252.405 264.856 254.165 264.856 256C264.856 257.835 264.127 259.595 262.83 260.892C261.532 262.19 259.772 262.919 257.937 262.919Z" fill="url(#paint7_linear)"/>
<path d="M477.468 484.207H34.5323C29.0273 484.207 23.7477 482.02 19.8551 478.127C15.9624 474.234 13.7756 468.955 13.7756 463.45V371.497C13.7756 365.992 15.9624 360.713 19.8551 356.82C23.7477 352.928 29.0273 350.741 34.5323 350.741H477.468C482.973 350.741 488.252 352.928 492.145 356.82C496.038 360.713 498.224 365.992 498.224 371.497V463.45C498.224 468.955 496.038 474.234 492.145 478.127C488.252 482.02 482.973 484.207 477.468 484.207ZM34.5323 364.579C32.6973 364.579 30.9374 365.308 29.6399 366.605C28.3424 367.903 27.6134 369.662 27.6134 371.497V463.45C27.6134 465.285 28.3424 467.045 29.6399 468.342C30.9374 469.64 32.6973 470.369 34.5323 470.369H477.468C479.303 470.369 481.063 469.64 482.36 468.342C483.658 467.045 484.387 465.285 484.387 463.45V371.497C484.387 369.662 483.658 367.903 482.36 366.605C481.063 365.308 479.303 364.579 477.468 364.579H34.5323Z" fill="url(#paint8_linear)"/>
<path d="M415.073 447.537C409.127 447.535 403.316 445.771 398.373 442.467C393.43 439.163 389.578 434.467 387.303 428.974C385.029 423.48 384.435 417.436 385.596 411.605C386.756 405.774 389.62 400.417 393.825 396.214C398.029 392.01 403.386 389.148 409.217 387.988C415.049 386.829 421.093 387.425 426.586 389.7C432.079 391.976 436.773 395.829 440.077 400.773C443.38 405.716 445.143 411.528 445.143 417.474C445.133 425.445 441.962 433.088 436.325 438.724C430.687 444.36 423.044 447.529 415.073 447.537V447.537ZM415.073 401.249C411.864 401.25 408.728 402.203 406.061 403.987C403.393 405.77 401.315 408.305 400.088 411.27C398.861 414.234 398.541 417.497 399.168 420.643C399.794 423.79 401.34 426.681 403.61 428.949C405.879 431.217 408.77 432.762 411.917 433.387C415.064 434.013 418.326 433.691 421.29 432.463C424.255 431.235 426.788 429.155 428.571 426.487C430.353 423.819 431.305 420.683 431.305 417.474C431.299 413.171 429.587 409.047 426.544 406.005C423.501 402.963 419.376 401.253 415.073 401.249V401.249Z" fill="url(#paint9_linear)"/>
<path d="M322.74 447.537C316.794 447.537 310.982 445.773 306.038 442.47C301.094 439.167 297.241 434.472 294.966 428.978C292.69 423.485 292.095 417.441 293.255 411.609C294.415 405.777 297.278 400.421 301.482 396.216C305.687 392.012 311.043 389.149 316.875 387.989C322.707 386.829 328.751 387.424 334.244 389.7C339.738 391.975 344.433 395.828 347.736 400.772C351.039 405.716 352.803 411.528 352.803 417.474C352.793 425.444 349.623 433.085 343.987 438.721C338.351 444.357 330.71 447.527 322.74 447.537ZM322.74 401.249C319.531 401.249 316.394 402.201 313.726 403.983C311.058 405.766 308.978 408.3 307.75 411.265C306.522 414.23 306.201 417.492 306.827 420.639C307.453 423.786 308.998 426.677 311.267 428.947C313.536 431.216 316.427 432.761 319.575 433.387C322.722 434.013 325.984 433.692 328.949 432.464C331.914 431.236 334.448 429.156 336.23 426.488C338.013 423.82 338.965 420.683 338.965 417.474C338.959 413.172 337.248 409.049 334.207 406.007C331.165 402.966 327.041 401.254 322.74 401.249V401.249Z" fill="url(#paint10_linear)"/>
<path d="M257.937 424.393H73.7764C71.9414 424.393 70.1816 423.664 68.884 422.366C67.5865 421.068 66.8575 419.309 66.8575 417.474C66.8575 415.639 67.5865 413.879 68.884 412.581C70.1816 411.284 71.9414 410.555 73.7764 410.555H257.937C259.772 410.555 261.532 411.284 262.83 412.581C264.127 413.879 264.856 415.639 264.856 417.474C264.856 419.309 264.127 421.068 262.83 422.366C261.532 423.664 259.772 424.393 257.937 424.393Z" fill="url(#paint11_linear)"/>
<path d="M425.583 203.126C423.748 203.126 421.988 202.397 420.69 201.099C419.393 199.802 418.664 198.042 418.664 196.207V161.273H93.3362V196.207C93.3362 198.042 92.6073 199.802 91.3097 201.099C90.0122 202.397 88.2523 203.126 86.4173 203.126C84.5823 203.126 82.8224 202.397 81.5249 201.099C80.2273 199.802 79.4984 198.042 79.4984 196.207V154.354C79.4984 152.519 80.2273 150.759 81.5249 149.462C82.8224 148.164 84.5823 147.435 86.4173 147.435H425.583C427.418 147.435 429.178 148.164 430.475 149.462C431.773 150.759 432.502 152.519 432.502 154.354V196.207C432.502 198.042 431.773 199.802 430.475 201.099C429.178 202.397 427.418 203.126 425.583 203.126Z" fill="url(#paint12_linear)"/>
<path d="M425.583 364.544H86.4173C84.5823 364.544 82.8224 363.815 81.5249 362.518C80.2273 361.22 79.4984 359.46 79.4984 357.625V315.835C79.4984 314 80.2273 312.24 81.5249 310.943C82.8224 309.645 84.5823 308.916 86.4173 308.916C88.2523 308.916 90.0122 309.645 91.3097 310.943C92.6073 312.24 93.3362 314 93.3362 315.835V350.706H418.664V315.835C418.664 314 419.393 312.24 420.69 310.943C421.988 309.645 423.748 308.916 425.583 308.916C427.418 308.916 429.178 309.645 430.475 310.943C431.773 312.24 432.502 314 432.502 315.835V357.625C432.502 359.46 431.773 361.22 430.475 362.518C429.178 363.815 427.418 364.544 425.583 364.544Z" fill="url(#paint13_linear)"/>
<defs>
<linearGradient id="paint0_linear" x1="256" y1="27.7933" x2="256" y2="161.259" gradientUnits="userSpaceOnUse">
<stop stop-color="#EB174A"/>
<stop offset="1" stop-color="#F97125"/>
</linearGradient>
<linearGradient id="paint1_linear" x1="415.08" y1="64.4635" x2="415.08" y2="124.589" gradientUnits="userSpaceOnUse">
<stop stop-color="#EB174A"/>
<stop offset="1" stop-color="#F97125"/>
</linearGradient>
<linearGradient id="paint2_linear" x1="322.74" y1="64.4635" x2="322.74" y2="124.589" gradientUnits="userSpaceOnUse">
<stop stop-color="#EB174A"/>
<stop offset="1" stop-color="#F97125"/>
</linearGradient>
<linearGradient id="paint3_linear" x1="165.857" y1="87.6073" x2="165.857" y2="101.445" gradientUnits="userSpaceOnUse">
<stop stop-color="#EB174A"/>
<stop offset="1" stop-color="#F97125"/>
</linearGradient>
<linearGradient id="paint4_linear" x1="256" y1="189.267" x2="256" y2="322.733" gradientUnits="userSpaceOnUse">
<stop stop-color="#EB174A"/>
<stop offset="1" stop-color="#F97125"/>
</linearGradient>
<linearGradient id="paint5_linear" x1="415.08" y1="225.937" x2="415.08" y2="286.063" gradientUnits="userSpaceOnUse">
<stop stop-color="#EB174A"/>
<stop offset="1" stop-color="#F97125"/>
</linearGradient>
<linearGradient id="paint6_linear" x1="322.74" y1="225.937" x2="322.74" y2="286.063" gradientUnits="userSpaceOnUse">
<stop stop-color="#EB174A"/>
<stop offset="1" stop-color="#F97125"/>
</linearGradient>
<linearGradient id="paint7_linear" x1="165.857" y1="249.081" x2="165.857" y2="262.919" gradientUnits="userSpaceOnUse">
<stop stop-color="#EB174A"/>
<stop offset="1" stop-color="#F97125"/>
</linearGradient>
<linearGradient id="paint8_linear" x1="256" y1="350.741" x2="256" y2="484.207" gradientUnits="userSpaceOnUse">
<stop stop-color="#EB174A"/>
<stop offset="1" stop-color="#F97125"/>
</linearGradient>
<linearGradient id="paint9_linear" x1="415.08" y1="387.411" x2="415.08" y2="447.537" gradientUnits="userSpaceOnUse">
<stop stop-color="#EB174A"/>
<stop offset="1" stop-color="#F97125"/>
</linearGradient>
<linearGradient id="paint10_linear" x1="322.74" y1="387.411" x2="322.74" y2="447.537" gradientUnits="userSpaceOnUse">
<stop stop-color="#EB174A"/>
<stop offset="1" stop-color="#F97125"/>
</linearGradient>
<linearGradient id="paint11_linear" x1="165.857" y1="410.555" x2="165.857" y2="424.393" gradientUnits="userSpaceOnUse">
<stop stop-color="#EB174A"/>
<stop offset="1" stop-color="#F97125"/>
</linearGradient>
<linearGradient id="paint12_linear" x1="256" y1="147.435" x2="256" y2="203.126" gradientUnits="userSpaceOnUse">
<stop stop-color="#EB174A"/>
<stop offset="1" stop-color="#F97125"/>
</linearGradient>
<linearGradient id="paint13_linear" x1="256" y1="308.916" x2="256" y2="364.544" gradientUnits="userSpaceOnUse">
<stop stop-color="#EB174A"/>
<stop offset="1" stop-color="#F97125"/>
</linearGradient>
</defs>
</svg>
