<svg width="512" height="512" viewBox="0 0 512 512" fill="none" xmlns="http://www.w3.org/2000/svg">
<path d="M511.985 211.399C511.781 206.72 509.174 198.046 494.009 192.527L89.696 45.514C68.971 37.973 45.971 48.695 38.427 69.421L27.482 99.49C27.482 99.49 27.481 99.493 27.48 99.495L2.857 167.148C-4.686 187.875 6.038 210.873 26.767 218.418L144.603 261.257C142.364 274.877 146.099 288.334 154.229 298.629L129.127 367.592C127.972 370.766 124.924 372.899 121.543 372.899H48V348.899C48 335.666 37.234 324.899 24 324.899H8C3.582 324.899 0 328.481 0 332.899V460.899C0 465.317 3.582 468.899 8 468.899H24C37.234 468.899 48 458.132 48 444.899V420.899H121.543C145.031 420.899 166.205 406.071 174.232 384.003L198.806 316.489C212.869 314.515 225.649 306.304 233.235 293.48L370.938 343.542C375.439 345.18 380.045 345.957 384.579 345.957C398.33 345.956 411.396 338.808 418.713 326.877L434.515 332.628C436.3 333.277 438.15 333.601 439.995 333.601C442.298 333.601 444.593 333.097 446.742 332.095C450.613 330.29 453.549 327.085 455.009 323.073L476.906 262.911C479.569 255.594 476.53 247.575 470.077 243.723L495.723 231.765C510.349 224.945 512.189 216.078 511.985 211.399ZM32 444.899C32 449.31 28.411 452.899 24 452.899H16V340.899H24C28.411 340.899 32 344.488 32 348.899V444.899ZM159.197 378.532C153.46 394.303 138.328 404.899 121.543 404.899H48V388.899H121.543C131.625 388.899 140.714 382.536 144.162 373.065L167.127 309.971C169.762 311.554 172.585 312.913 175.583 314.004C177.711 314.779 179.858 315.392 182.009 315.857L159.197 378.532ZM193.104 300.917C192.919 300.916 192.735 300.916 192.551 300.927C188.741 300.978 184.854 300.352 181.055 298.969C176.608 297.35 172.73 294.859 169.553 291.756C169.262 291.402 168.939 291.074 168.586 290.773C162.628 284.427 159.438 275.812 160.042 266.87L217.8 287.868C211.956 295.894 202.808 300.618 193.104 300.917ZM461.873 257.439L439.99 317.594L424.944 312.118L445.7 255.091L449.949 253.11L461.873 257.439ZM488.963 217.264L446.196 237.206C446.191 237.208 446.187 237.21 446.183 237.212L435.941 241.988C435.937 241.99 435.934 241.991 435.93 241.993L423.922 247.592C409.83 254.163 385.579 255.221 370.964 249.902L139.555 165.821C135.404 164.314 130.813 166.456 129.304 170.608C127.795 174.761 129.938 179.35 134.091 180.86L365.496 264.939C373.548 267.87 383.473 269.297 393.601 269.297C404.674 269.297 415.98 267.582 425.337 264.261L407.175 314.162C402.649 326.598 388.849 333.032 376.411 328.505L32.236 203.382C19.8 198.856 13.366 185.057 17.892 172.621L31.58 135.013C36.145 142.031 42.934 147.682 51.39 150.76L58.91 153.496C63.058 155.008 67.652 152.866 69.163 148.714C70.674 144.563 68.533 139.972 64.381 138.461L56.862 135.725C44.428 131.199 37.993 117.403 42.516 104.968L45.254 97.445C45.254 97.445 45.255 97.443 45.255 97.442L53.462 74.893C57.989 62.457 71.788 56.02 84.226 60.549L488.539 207.563C493.675 209.432 495.575 211.38 495.961 212.098C495.639 212.848 493.917 214.953 488.963 217.264Z" fill="url(#paint0_linear)"/>
<path d="M109.485 154.878L94.448 149.404C90.297 147.891 85.706 150.034 84.194 154.185C82.683 158.336 84.823 162.927 88.975 164.439L104.012 169.913C104.915 170.242 105.839 170.397 106.748 170.397C110.016 170.397 113.083 168.379 114.266 165.131C115.778 160.981 113.637 156.39 109.485 154.878Z" fill="url(#paint1_linear)"/>
<defs>
<linearGradient id="paint0_linear" x1="256" y1="43.1003" x2="256" y2="468.899" gradientUnits="userSpaceOnUse">
<stop stop-color="#EB174A"/>
<stop offset="1" stop-color="#F97125"/>
</linearGradient>
<linearGradient id="paint1_linear" x1="99.2302" y1="148.919" x2="99.2302" y2="170.397" gradientUnits="userSpaceOnUse">
<stop stop-color="#EB174A"/>
<stop offset="1" stop-color="#F97125"/>
</linearGradient>
</defs>
</svg>
